<?xml version="1.0" standalone="no"?><!DOCTYPE svg PUBLIC "-//W3C//DTD SVG 1.1//EN" "http://www.w3.org/Graphics/SVG/1.1/DTD/svg11.dtd"><svg t="1670729768338" class="icon" viewBox="0 0 1024 1024" version="1.1" xmlns="http://www.w3.org/2000/svg" p-id="19984" xmlns:xlink="http://www.w3.org/1999/xlink" width="16" height="16"><path d="M512 87.806c-234.721 0-424.194 189.474-424.194 424.194s189.474 424.194 424.194 424.194 424.194-189.474 424.194-424.194-189.474-424.194-424.194-424.194zM594.010 825.904c-18.382 12.725-25.452 8.484-12.725-4.242 11.312-12.725 83.425-103.22-29.694-168.263-36.763-21.21-49.49-72.113-49.49-83.425 0-12.725 2.829-18.382-7.069-14.141-8.484 2.829-195.13 91.908-41.007 265.828 9.899 11.312 5.655 14.141-12.725 5.655-419.953-224.822 137.155-579.732 145.639-583.974 8.484-5.655 5.655 2.829-1.414 16.967-12.725 25.452-45.248 164.022 41.007 220.582 87.668 56.56 213.509 172.507-32.522 345.012z" p-id="19985" fill="red"></path></svg>