<?xml version="1.0" standalone="no"?><!DOCTYPE svg PUBLIC "-//W3C//DTD SVG 1.1//EN" "http://www.w3.org/Graphics/SVG/1.1/DTD/svg11.dtd"><svg t="1677742410304" class="icon" viewBox="0 0 1024 1024" version="1.1" xmlns="http://www.w3.org/2000/svg" p-id="4628" xmlns:xlink="http://www.w3.org/1999/xlink" width="24" height="24"><path d="M777.6 829.6c0 14.2-11.9 25.8-26.6 25.8H198.7c-14.7 0-26.6-11.6-26.6-25.8V284.3c0-14.2 11.9-25.8 26.6-25.8h354.7v-68H198.7c-52.2 0-94.6 42.1-94.6 93.8v545.3c0 51.7 42.4 93.8 94.6 93.8H751c52.2 0 94.6-42.1 94.6-93.8V478.2h-68v351.4z" fill="#7ec5c8" p-id="4629"></path><path d="M914.4 216.3L864.2 165l-21.1-21.6-29.1-29.8c-6.4-6.5-15.2-10.2-24.3-10.2-9.2 0-17.9 3.7-24.3 10.3l-27.8 28.5-2.5 2.6-304.8 312.7c-0.4 0.4-0.8 0.8-1.2 1.3-0.4 0.5-0.8 0.9-1.2 1.4-0.1 0.1-0.1 0.2-0.2 0.3-0.3 0.4-0.6 0.8-0.9 1.3-0.1 0.1-0.1 0.2-0.2 0.3-0.3 0.5-0.6 0.9-0.9 1.4 0 0.1-0.1 0.1-0.1 0.2l-1.2 2.1-117.3 222.8c-7 13.3-4.4 29.6 6.3 40.1 6.5 6.4 15.1 9.7 23.8 9.7 5.6 0 11.3-1.4 16.5-4.3l217.7-120.5c0.1-0.1 0.3-0.2 0.4-0.2 0.4-0.2 0.7-0.4 1.1-0.7 0.2-0.1 0.4-0.3 0.6-0.4 0.3-0.2 0.6-0.4 1-0.6 0.2-0.1 0.4-0.3 0.6-0.4 0.3-0.2 0.6-0.4 0.9-0.7 0.2-0.2 0.4-0.3 0.6-0.5 0.3-0.2 0.6-0.5 0.9-0.7 0.2-0.2 0.4-0.3 0.5-0.5l0.9-0.9 0.4-0.4L870.4 309l16.3-16.7 27.8-28.5c12.8-13.2 12.8-34.3-0.1-47.5z m-92.7 45.3c-0.3 0.3-1.2 1.1-2.9 1.1-1.1 0-3.2-0.3-5.3-2.5l-42.1-43.1c-3.4-3.5-3.5-8.5-1.3-10.8l16.3-16.7c0.3-0.3 1.1-1.2 2.9-1.2 1.1 0 3.2 0.3 5.3 2.5l42.1 43.1c3.4 3.5 3.5 8.5 1.3 10.8l-1.6 1.6-14.7 15.2z m-103.5-2c1.4 1.7 2.9 3.5 4.5 5.1l42.1 43.1c2 2 4.1 3.9 6.2 5.7L554.9 535.2l-52.8-54 216.1-221.6z m-298 360l42.7-81.2 36.5 37.4-79.2 43.8z" fill="#7ec5c8" p-id="4630"></path></svg>