<?xml version="1.0" standalone="no"?><!DOCTYPE svg PUBLIC "-//W3C//DTD SVG 1.1//EN" "http://www.w3.org/Graphics/SVG/1.1/DTD/svg11.dtd"><svg t="1677756657938" class="icon" viewBox="0 0 1024 1024" version="1.1" xmlns="http://www.w3.org/2000/svg" p-id="2389" xmlns:xlink="http://www.w3.org/1999/xlink" width="28" height="28"><path d="M866.816 430.08h-66.048a290.304 290.304 0 0 0-27.648-66.048l46.08-47.616a54.784 54.784 0 0 0 0-77.824l-38.912-38.912a54.272 54.272 0 0 0-77.312 0l-48.64 48.64a296.448 296.448 0 0 0-61.952-25.088V157.184A54.784 54.784 0 0 0 539.136 102.4H484.864A54.784 54.784 0 0 0 430.08 157.184v66.048a307.2 307.2 0 0 0-64 26.112l-51.2-51.2a54.784 54.784 0 0 0-77.824 0l-38.912 38.912a54.784 54.784 0 0 0 0 77.824l51.2 51.2a307.2 307.2 0 0 0-26.112 64H157.184A54.784 54.784 0 0 0 102.4 484.864v54.272a54.784 54.784 0 0 0 54.784 54.784h66.048a296.448 296.448 0 0 0 25.088 61.952l-48.64 48.64a54.272 54.272 0 0 0 0 77.312l38.912 38.912a54.784 54.784 0 0 0 77.824 0l47.616-47.616a290.304 290.304 0 0 0 66.048 27.648v66.048A54.784 54.784 0 0 0 484.864 921.6h54.272a54.784 54.784 0 0 0 54.784-54.784v-66.048a307.2 307.2 0 0 0 64-26.112l46.592 46.08a54.272 54.272 0 0 0 77.312 0l38.912-38.912a54.272 54.272 0 0 0 0-77.312l-46.08-46.592a307.2 307.2 0 0 0 26.112-64h66.048A54.784 54.784 0 0 0 921.6 539.136V484.864a54.784 54.784 0 0 0-54.784-54.784zM512 716.8a204.8 204.8 0 1 1 204.8-204.8 204.8 204.8 0 0 1-204.8 204.8z" fill="" p-id="2390"></path></svg>