<?xml version="1.0" standalone="no"?><!DOCTYPE svg PUBLIC "-//W3C//DTD SVG 1.1//EN" "http://www.w3.org/Graphics/SVG/1.1/DTD/svg11.dtd"><svg t="1670729403386" class="icon" viewBox="0 0 1024 1024" version="1.1" xmlns="http://www.w3.org/2000/svg" p-id="19213" xmlns:xlink="http://www.w3.org/1999/xlink" width="16" height="16"><path d="M788 295.1c-35.8-35.8-77.6-63.8-124.1-83.5-48.2-20.3-99.3-30.6-152-30.6s-103.8 10.3-152 30.6c-46.5 19.6-88.2 47.7-124.1 83.5-35.8 35.8-64 77.4-83.7 123.8-20.4 48-30.7 99-30.7 151.6 0 52.6 10.3 103.6 30.7 151.6 19.7 46.4 47.8 88 83.7 123.8 35.8 35.8 77.6 63.8 124.1 83.5 48.2 20.3 99.3 30.6 152 30.6s103.8-10.3 152-30.6c46.5-19.6 88.2-47.7 124.1-83.5 35.8-35.8 64-77.4 83.7-123.8 20.4-48 30.7-99 30.7-151.6 0-52.6-10.3-103.6-30.7-151.6-19.7-46.4-47.8-88-83.7-123.8zM686.8 663.5H447.9V423h64v176.6h175v63.9zM810.7 64c-67.2 0-124 44.3-142.8 105.2 88.3 34.2 162.6 96.5 211.6 176C927.3 320.4 960 270.5 960 213c0-82.3-66.8-149-149.3-149zM356.1 169.2C337.4 108.3 280.5 64 213.3 64 130.9 64 64 130.7 64 213c0 57.5 32.7 107.4 80.5 132.2 49-79.5 123.3-141.8 211.6-176z" fill="#1296db" p-id="19214"></path></svg>